<?xml version="1.0" encoding="UTF-8"?>
<!DOCTYPE svg PUBLIC "-//W3C//DTD SVG 1.1//EN" "http://www.w3.org/Graphics/SVG/1.1/DTD/svg11.dtd">
<!-- Creator: CorelDRAW 2017 -->
<svg xmlns="http://www.w3.org/2000/svg" xml:space="preserve" width="11.2889mm" height="15.5223mm" version="1.1" style="shape-rendering:geometricPrecision; text-rendering:geometricPrecision; image-rendering:optimizeQuality; fill-rule:evenodd; clip-rule:evenodd"
viewBox="0 0 166.83 229.4"
 xmlns:xlink="http://www.w3.org/1999/xlink">
 <defs>
  <style type="text/css">
   <![CDATA[
    .fil0 {fill:#FEFEFE;fill-rule:nonzero}
   ]]>
  </style>
 </defs>
 <g id="Слой_x0020_1">
  <metadata id="CorelCorpID_0Corel-Layer"/>
  <g id="_1671391362800">
   <path class="fil0" d="M83.42 41.71c-23.04,0 -41.71,18.67 -41.71,41.71 0,23.04 18.67,41.71 41.71,41.71 23.04,0 41.71,-18.67 41.71,-41.71 0,-23.03 -18.67,-41.71 -41.71,-41.71zm0 72.99l0 0c-17.28,0 -31.28,-14.01 -31.28,-31.28 0,-17.27 14.01,-31.28 31.28,-31.28 17.28,0 31.28,14.01 31.28,31.28 0,17.27 -14,31.28 -31.28,31.28zm0 -114.7l0 0c-46.07,0 -83.42,37.35 -83.42,83.42 0,67.78 83.42,145.98 83.42,145.98 0,0 83.42,-78.2 83.42,-145.98 0,-46.07 -37.35,-83.42 -83.42,-83.42zm0 213.76l0 0c0,0 -72.99,-67.78 -72.99,-130.34 0,-40.31 32.68,-72.98 72.99,-72.98 40.31,0 72.99,32.67 72.99,72.98 0,62.56 -72.99,130.34 -72.99,130.34z"/>
  </g>
 </g>
</svg>
