<?xml version="1.0" encoding="UTF-8"?>
<!DOCTYPE svg PUBLIC "-//W3C//DTD SVG 1.1//EN" "http://www.w3.org/Graphics/SVG/1.1/DTD/svg11.dtd">
<!-- Creator: CorelDRAW X8 -->
<svg xmlns="http://www.w3.org/2000/svg" xml:space="preserve" width="166.632mm" height="34.4069mm" version="1.1" style="shape-rendering:geometricPrecision; text-rendering:geometricPrecision; image-rendering:optimizeQuality; fill-rule:evenodd; clip-rule:evenodd"
viewBox="0 0 16523 3412"
 xmlns:xlink="http://www.w3.org/1999/xlink">
 <defs>
  <style type="text/css">
   <![CDATA[
    .fil1 {fill:#067CFF}
    .fil0 {fill:#F20444}
   ]]>
  </style>
 </defs>
 <g id="Слой_x0020_1">
  <metadata id="CorelCorpID_0Corel-Layer"/>
  <path class="fil0" d="M16523 2411l0 0c-982,41 -1956,40 -2922,1 987,-38 1961,-38 2922,-1zm-4485 999l0 0c710,34 1328,-386 1542,-994 -340,611 -872,937 -1542,994zm-1526 -2414l0 0c-970,41 -9551,23 -10512,-20 965,-36 9546,-20 10512,20zm1549 -994l0 0c-698,-34 -1299,370 -1549,994 330,-561 820,-925 1549,-994zm1214 1685l0 0c171,1197 -1617,2073 -2389,632 740,1053 2218,637 2389,-632zm-2472 436l0 0c-479,-1408 1208,-2256 2055,-1350 -1010,-851 -2407,34 -2055,1350zm1116 -418l0 0c-201,141 -388,310 -559,517 216,-148 400,-322 559,-517zm168 -50l0 0c238,3 517,-69 794,-157 34,320 -93,564 -273,773 21,25 43,50 64,75 298,-300 355,-631 286,-979 -291,86 -581,185 -871,288zm742 -413l0 0c-324,118 -578,251 -749,402 312,-145 562,-278 749,-402zm-821 252l0 0c21,-251 42,-502 62,-753 388,30 597,210 732,453 -207,-192 -416,-300 -627,-321 -55,207 -111,414 -167,621zm-203 103l0 0c-261,-88 -503,-186 -726,-297 190,-402 475,-562 825,-554 -3,43 -6,85 -10,127 -213,12 -518,104 -680,381 215,112 427,223 591,343zm631 868l0 0c-158,-196 -307,-398 -454,-601 -126,243 -211,399 -344,634 212,123 476,145 791,69 -299,157 -619,145 -930,-17 -2,-1 -4,-2 -6,-3 -386,-214 -550,-559 -444,-1064 -24,498 143,780 421,937 170,-239 340,-478 511,-717 170,250 315,506 455,762z"/>
  <g id="_2035715724336">
   <g>
    <path class="fil1" d="M896 3116c-93,0 -150,-18 -170,-53 -21,-35 -25,-91 -14,-170l260 -1833c336,4 673,6 1009,9 203,1 405,3 608,4 59,81 101,172 126,273 28,115 42,236 42,362 0,99 -7,202 -22,309 -14,107 -40,212 -76,317 -36,105 -84,204 -143,299 -59,94 -132,177 -221,248 -88,71 -193,128 -316,171 -122,42 -262,64 -421,64l-662 0zm108 -2229l0 0c11,-32 25,-58 41,-79 30,-37 91,-56 184,-56l604 0c179,0 328,27 447,80 34,15 67,32 97,50 -131,0 -263,0 -394,1 -326,1 -653,2 -979,4zm551 412l0 0 -177 1263 146 0c111,0 205,-23 280,-68 76,-45 137,-104 184,-177 46,-73 80,-157 100,-251 20,-95 31,-193 31,-294 0,-70 -7,-134 -21,-193 -13,-58 -37,-108 -69,-150 -33,-41 -77,-74 -131,-96 -54,-23 -124,-34 -207,-34l-136 0zm3121 1739l0 0c-9,52 -32,78 -71,78l-1043 0c-131,0 -236,-19 -313,-58 -77,-38 -134,-88 -173,-150 -38,-62 -61,-131 -68,-208 -7,-76 -4,-152 7,-226l153 -1080c11,-81 31,-161 58,-238 9,-28 20,-54 33,-79 537,2 1073,4 1610,5l-19 133c-5,29 -12,49 -22,59 -11,10 -28,15 -53,15l-771 0c-43,0 -79,6 -107,19 -29,12 -51,27 -67,45 -15,18 -27,38 -35,61 -8,23 -13,45 -16,68l-20 141 883 0c28,0 43,5 48,14 4,9 4,33 0,71l-51 351c-5,29 -11,49 -20,61 -9,11 -26,17 -51,17l-884 0 -34 253c-6,43 -6,76 0,101 7,25 18,43 34,56 16,12 36,20 60,23 24,4 49,5 76,5l860 0c25,0 41,4 47,12 7,8 8,31 4,69l-55 382zm-1257 -2158l0 0c37,-28 80,-53 128,-74 82,-36 185,-54 307,-54l996 0c27,0 44,4 51,12 6,8 8,31 3,69l-7 48c-493,0 -985,-1 -1478,-1zm2232 2236l0 0c-131,0 -235,-19 -312,-58 -77,-38 -135,-88 -173,-150 -39,-62 -62,-131 -70,-208 -8,-76 -6,-152 5,-226l194 -1391 30 0c199,1 397,1 595,1l-184 1306c-6,43 -6,76 0,101 7,25 19,43 34,56 16,12 36,20 60,23 24,4 49,5 76,5l782 0c27,0 45,4 54,12 9,8 11,31 7,69l-55 382c-9,52 -36,78 -81,78l-962 0zm-328 -2234l0 0 9 -62c7,-48 35,-71 85,-71l472 0c37,0 58,5 65,15 7,10 8,29 3,56l-9 63c-207,0 -415,-1 -623,-1l-2 0zm3332 329l0 0c-9,52 -36,78 -82,78l-564 0 -251 1756c-5,27 -11,45 -19,56 -8,10 -30,15 -66,15l-469 0c-52,0 -75,-24 -68,-71l252 -1756 -551 0c-47,0 -67,-26 -58,-78l19 -126c622,0 1245,-1 1868,-3l7 0 -18 129zm-1829 -325l0 0 8 -53c4,-38 12,-61 24,-69 11,-8 29,-12 54,-12l1736 0c27,0 45,4 54,12 9,8 12,31 7,69l-9 63 -33 -1c-613,-4 -1227,-7 -1841,-9zm2892 1767l0 0 51 405c5,25 15,41 32,48 17,6 38,10 63,10l489 0c25,0 40,-8 45,-24 4,-16 5,-29 3,-40l-334 -1980c-59,1 -117,2 -176,2 -246,3 -493,4 -739,6l-891 1972c-7,18 -8,33 -4,45 5,12 17,19 38,19l496 0c38,0 64,-7 76,-19 13,-12 26,-31 39,-56l163 -388 649 0zm-481 -1753l0 0c31,-56 64,-93 99,-112 46,-26 106,-39 178,-39l269 0c38,0 72,2 102,5 29,3 55,12 76,25 22,14 40,35 54,63 10,18 18,40 24,66 -49,0 -98,-1 -147,-2 -218,-2 -437,-5 -655,-6zm43 1253l0 0 102 -253 183 -496 27 0 38 486 24 263 -374 0zm5906 500l0 0 -649 0 -163 388c-13,25 -26,44 -39,56 -12,12 -38,19 -76,19l-496 0c-20,0 -33,-7 -37,-19 -5,-12 -4,-27 3,-46l254 -562c598,19 1196,23 1793,12l93 550c3,12 1,25 -3,41 -5,16 -19,24 -44,24l-490 0c-24,0 -45,-4 -62,-10 -17,-7 -28,-23 -33,-48l-51 -405zm-1128 -330l0 0 615 -1361c41,-90 85,-148 131,-174 47,-26 106,-39 179,-39l268 0c38,0 72,2 102,5 29,3 55,12 76,25 22,14 40,35 55,63 14,28 25,67 32,116l229 1354c-563,-8 -1125,-4 -1687,11zm690 -170l0 0 374 0 -24 -263 -37 -486 -27 0 -184 496 -102 253zm-14413 -1661l0 0 -42 100 -105 0 209 -441 114 0c1,12 3,30 5,53 2,23 4,49 7,77 2,29 5,59 8,90 3,32 5,62 8,90 3,29 5,55 7,78 2,23 3,41 5,53l-98 0c-1,-5 -1,-12 -2,-21 0,-9 -1,-19 -1,-29 0,-10 -1,-20 -1,-29 -1,-9 -1,-16 -2,-21l-112 0zm110 -75l0 0c0,-5 0,-11 0,-20 0,-8 0,-17 -1,-26 0,-9 -1,-18 -1,-27 0,-8 0,-14 -1,-19 0,-3 0,-8 0,-16 0,-8 0,-15 0,-24 0,-8 0,-16 0,-24 0,-8 0,-13 0,-17l-4 0c-2,4 -5,9 -8,17 -3,8 -6,16 -9,24 -3,9 -6,17 -9,24 -3,8 -5,14 -7,17 -2,4 -5,11 -8,19 -4,8 -7,17 -11,26 -4,9 -8,18 -11,26 -4,9 -6,15 -8,20l78 0zm1042 -266l0 0c16,0 32,1 47,5 14,4 27,10 37,18 10,8 19,18 25,31 6,12 9,27 9,46 0,10 -2,21 -5,32 -4,11 -9,21 -16,31 -7,9 -16,18 -26,25 -10,8 -22,14 -36,18l0 3c21,7 36,17 44,32 9,15 14,31 14,50 0,22 -5,42 -13,61 -8,18 -18,34 -32,47 -14,13 -30,24 -48,31 -18,7 -38,11 -58,11l-178 0 86 -441 150 0zm-100 246l0 0 -24 120 39 0c10,0 20,-1 30,-3 9,-2 18,-6 26,-12 7,-5 13,-13 18,-22 5,-10 7,-22 7,-36 0,-17 -5,-29 -16,-36 -11,-7 -25,-11 -41,-11l-39 0zm33 -171l0 0 -19 98 38 0c8,0 16,-2 24,-4 8,-2 16,-5 22,-10 6,-5 11,-12 15,-19 4,-8 6,-17 6,-27 0,-8 -1,-14 -4,-19 -3,-4 -7,-8 -11,-11 -5,-3 -10,-5 -15,-6 -6,-1 -12,-2 -17,-2l-39 0zm1017 366l0 0 -100 0 71 -363 -96 0 16 -79 294 0 -16 79 -99 0 -70 363zm947 9l0 0c-26,0 -47,-4 -65,-11 -18,-8 -32,-18 -43,-32 -11,-13 -19,-30 -24,-49 -5,-18 -7,-39 -7,-62 0,-12 0,-25 1,-37 2,-13 3,-26 5,-40 6,-34 13,-64 24,-93 10,-28 24,-52 40,-72 16,-20 36,-36 60,-47 23,-11 51,-17 82,-17 26,0 47,4 65,11 18,7 32,17 43,31 11,13 19,29 24,48 5,19 8,40 8,64 0,42 -4,82 -12,119 -9,37 -21,69 -39,97 -17,28 -39,50 -66,66 -27,16 -59,24 -96,24zm64 -379l0 0c-12,0 -23,4 -33,10 -9,7 -17,16 -24,28 -7,12 -14,26 -19,42 -5,17 -10,34 -13,54 -7,34 -11,65 -12,95 0,22 4,39 10,51 7,13 19,19 37,19 13,0 24,-4 34,-11 10,-7 18,-18 25,-31 7,-13 13,-29 18,-48 5,-18 10,-39 14,-61 3,-16 6,-31 7,-45 2,-14 3,-26 3,-38 0,-20 -4,-36 -11,-48 -7,-11 -19,-17 -36,-17zm1221 -72l0 0 -71 363 41 2 -39 184 -84 0 19 -107 -272 0 86 -442 98 0 -71 364 123 0c12,-61 24,-122 36,-182 12,-60 24,-121 36,-182l98 0zm750 0l0 0 256 0 -15 79 -159 0 -18 95 145 0 -16 77 -144 0 -22 112 170 0 -15 79 -269 0 87 -442zm1149 251l0 0 -124 0 -38 191 -98 0 86 -442 99 0 -34 174 124 0 34 -174 98 0 -86 442 -98 0 37 -191zm954 191l0 0 -99 0 70 -363 -96 0 17 -79 293 0 -15 79 -100 0 -70 363zm931 -173l0 0 -33 173 -99 0 86 -442 130 0c11,0 24,1 39,3 15,2 29,7 42,14 14,8 25,18 35,33 9,14 14,34 14,59 0,34 -7,61 -19,82 -12,21 -27,37 -45,49 -18,12 -37,19 -58,23 -21,4 -41,6 -59,6l-33 0zm38 -193l0 0 -23 118 23 0c9,0 18,-2 26,-4 9,-2 17,-6 25,-12 7,-6 13,-14 18,-24 4,-9 6,-21 6,-35 0,-9 -1,-16 -4,-22 -3,-5 -7,-10 -11,-13 -5,-3 -10,-5 -16,-6 -6,-1 -12,-2 -17,-2l-27 0z"/>
   </g>
  </g>
 </g>
</svg>
