<?xml version="1.0" encoding="UTF-8"?>
<!DOCTYPE svg PUBLIC "-//W3C//DTD SVG 1.1//EN" "http://www.w3.org/Graphics/SVG/1.1/DTD/svg11.dtd">
<!-- Creator: CorelDRAW 2017 -->
<svg xmlns="http://www.w3.org/2000/svg" xml:space="preserve" width="15.5222mm" height="11.2889mm" version="1.1" style="shape-rendering:geometricPrecision; text-rendering:geometricPrecision; image-rendering:optimizeQuality; fill-rule:evenodd; clip-rule:evenodd"
viewBox="0 0 546.73 397.62"
 xmlns:xlink="http://www.w3.org/1999/xlink">
 <defs>
  <style type="text/css">
   <![CDATA[
    .fil0 {fill:#FEFEFE}
   ]]>
  </style>
 </defs>
 <g id="Слой_x0020_1">
  <metadata id="CorelCorpID_0Corel-Layer"/>
  <g id="_1671478342416">
   <path class="fil0" d="M497.03 0l-447.32 0c-27.45,0 -49.71,22.25 -49.71,49.7l0 298.22c0,27.44 22.25,49.7 49.71,49.7l447.32 0c27.45,0 49.7,-22.26 49.7,-49.7l0 -298.22c0,-27.46 -22.25,-49.7 -49.7,-49.7zm-447.32 24.84l0 0 447.32 0c2.92,0 5.67,0.61 8.29,1.54l-215.11 215.09c-4.5,4.5 -10.48,6.98 -16.84,6.98 -6.36,0 -12.34,-2.49 -16.84,-6.98l-215.09 -215.09c2.6,-0.93 5.36,-1.54 8.28,-1.54zm-24.85 323.08l0 0 0 -298.22c0,-1.48 0.19,-2.91 0.44,-4.33l153.42 153.43 -153.42 153.42c-0.24,-1.4 -0.44,-2.84 -0.44,-4.31zm472.17 24.84l0 0 -447.32 0c-2.91,0 -5.68,-0.59 -8.28,-1.51l154.86 -154.87 42.66 42.66c9.51,9.52 21.96,14.28 34.42,14.28 12.46,0 24.91,-4.76 34.41,-14.28l42.66 -42.66 154.88 154.87c-2.62,0.92 -5.37,1.51 -8.3,1.51zm24.85 -24.84l0 0c0,1.48 -0.2,2.91 -0.44,4.31l-153.43 -153.42 153.43 -153.43c0.24,1.41 0.44,2.84 0.44,4.33l0 298.22z"/>
  </g>
 </g>
</svg>
