<?xml version="1.0" encoding="UTF-8" standalone="no"?>
<!-- Created with Inkscape (http://www.inkscape.org/) -->

<svg
   xmlns:dc="http://purl.org/dc/elements/1.1/"
   xmlns:cc="http://creativecommons.org/ns#"
   xmlns:rdf="http://www.w3.org/1999/02/22-rdf-syntax-ns#"
   xmlns:svg="http://www.w3.org/2000/svg"
   xmlns="http://www.w3.org/2000/svg"
   xmlns:sodipodi="http://sodipodi.sourceforge.net/DTD/sodipodi-0.dtd"
   xmlns:inkscape="http://www.inkscape.org/namespaces/inkscape"
   width="372"
   height="173"
   viewBox="0 0 372.00002 173"
   id="svg2"
   version="1.1"
   inkscape:version="0.91 r13725"
   sodipodi:docname="nldr.svg">
  <defs
     id="defs4">
    <style
       id="style3340"
       type="text/css"><![CDATA[
    .fil1 {fill:#067CFF}
    .fil0 {fill:#F20444}
   ]]></style>
  </defs>
  <sodipodi:namedview
     id="base"
     pagecolor="#ffffff"
     bordercolor="#666666"
     borderopacity="1.0"
     inkscape:pageopacity="0.0"
     inkscape:pageshadow="2"
     inkscape:zoom="1.4"
     inkscape:cx="131.61312"
     inkscape:cy="124.54172"
     inkscape:document-units="px"
     inkscape:current-layer="layer1"
     showgrid="false"
     units="px"
     inkscape:window-width="1920"
     inkscape:window-height="1015"
     inkscape:window-x="0"
     inkscape:window-y="36"
     inkscape:window-maximized="1" />
  <metadata
     id="metadata7">
    <rdf:RDF>
      <cc:Work
         rdf:about="">
        <dc:format>image/svg+xml</dc:format>
        <dc:type
           rdf:resource="http://purl.org/dc/dcmitype/StillImage" />
        <dc:title></dc:title>
      </cc:Work>
    </rdf:RDF>
  </metadata>
  <g
     inkscape:label="Layer 1"
     inkscape:groupmode="layer"
     id="layer1"
     transform="translate(0,-879.34979)">
    <g
       style="clip-rule:evenodd;fill-rule:evenodd;image-rendering:optimizeQuality;shape-rendering:geometricPrecision;text-rendering:geometricPrecision"
       id="g3356"
       transform="matrix(0.02250269,0,0,0.02107649,-0.19172062,879.25122)">
      <g
         id="Слой_x0020_1">
        <metadata
           id="CorelCorpID_0Corel-Layer" />
        <path
           id="path3344"
           d="m 16523,2411 0,0 c -982,41 -1956,40 -2922,1 987,-38 1961,-38 2922,-1 z m -4485,999 0,0 c 710,34 1328,-386 1542,-994 -340,611 -872,937 -1542,994 z m -1526,-2414 0,0 C 9542,1037 961,1019 0,976 965,940 9546,956 10512,996 Z m 1549,-994 0,0 c -698,-34 -1299,370 -1549,994 330,-561 820,-925 1549,-994 z m 1214,1685 0,0 c 171,1197 -1617,2073 -2389,632 740,1053 2218,637 2389,-632 z m -2472,436 0,0 C 10324,715 12011,-133 12858,773 11848,-78 10451,807 10803,2123 Z m 1116,-418 0,0 c -201,141 -388,310 -559,517 216,-148 400,-322 559,-517 z m 168,-50 0,0 c 238,3 517,-69 794,-157 34,320 -93,564 -273,773 21,25 43,50 64,75 298,-300 355,-631 286,-979 -291,86 -581,185 -871,288 z m 742,-413 0,0 c -324,118 -578,251 -749,402 312,-145 562,-278 749,-402 z m -821,252 0,0 c 21,-251 42,-502 62,-753 388,30 597,210 732,453 -207,-192 -416,-300 -627,-321 -55,207 -111,414 -167,621 z m -203,103 0,0 c -261,-88 -503,-186 -726,-297 190,-402 475,-562 825,-554 -3,43 -6,85 -10,127 -213,12 -518,104 -680,381 215,112 427,223 591,343 z m 631,868 0,0 c -158,-196 -307,-398 -454,-601 -126,243 -211,399 -344,634 212,123 476,145 791,69 -299,157 -619,145 -930,-17 -2,-1 -4,-2 -6,-3 -386,-214 -550,-559 -444,-1064 -24,498 143,780 421,937 170,-239 340,-478 511,-717 170,250 315,506 455,762 z"
           class="fil0"
           inkscape:connector-curvature="0"
           style="fill:#f20444" />
        <g
           id="_2035715724336">
          <g
             id="g3347">
            <path
               id="path3349"
               d="m 896,3116 c -93,0 -150,-18 -170,-53 -21,-35 -25,-91 -14,-170 L 972,1060 c 336,4 673,6 1009,9 203,1 405,3 608,4 59,81 101,172 126,273 28,115 42,236 42,362 0,99 -7,202 -22,309 -14,107 -40,212 -76,317 -36,105 -84,204 -143,299 -59,94 -132,177 -221,248 -88,71 -193,128 -316,171 -122,42 -262,64 -421,64 l -662,0 z m 108,-2229 0,0 c 11,-32 25,-58 41,-79 30,-37 91,-56 184,-56 l 604,0 c 179,0 328,27 447,80 34,15 67,32 97,50 -131,0 -263,0 -394,1 -326,1 -653,2 -979,4 z m 551,412 0,0 -177,1263 146,0 c 111,0 205,-23 280,-68 76,-45 137,-104 184,-177 46,-73 80,-157 100,-251 20,-95 31,-193 31,-294 0,-70 -7,-134 -21,-193 -13,-58 -37,-108 -69,-150 -33,-41 -77,-74 -131,-96 -54,-23 -124,-34 -207,-34 l -136,0 z m 3121,1739 0,0 c -9,52 -32,78 -71,78 l -1043,0 c -131,0 -236,-19 -313,-58 -77,-38 -134,-88 -173,-150 -38,-62 -61,-131 -68,-208 -7,-76 -4,-152 7,-226 l 153,-1080 c 11,-81 31,-161 58,-238 9,-28 20,-54 33,-79 537,2 1073,4 1610,5 l -19,133 c -5,29 -12,49 -22,59 -11,10 -28,15 -53,15 l -771,0 c -43,0 -79,6 -107,19 -29,12 -51,27 -67,45 -15,18 -27,38 -35,61 -8,23 -13,45 -16,68 l -20,141 883,0 c 28,0 43,5 48,14 4,9 4,33 0,71 l -51,351 c -5,29 -11,49 -20,61 -9,11 -26,17 -51,17 l -884,0 -34,253 c -6,43 -6,76 0,101 7,25 18,43 34,56 16,12 36,20 60,23 24,4 49,5 76,5 l 860,0 c 25,0 41,4 47,12 7,8 8,31 4,69 l -55,382 z M 3419,880 l 0,0 c 37,-28 80,-53 128,-74 82,-36 185,-54 307,-54 l 996,0 c 27,0 44,4 51,12 6,8 8,31 3,69 l -7,48 c -493,0 -985,-1 -1478,-1 z m 2232,2236 0,0 c -131,0 -235,-19 -312,-58 -77,-38 -135,-88 -173,-150 -39,-62 -62,-131 -70,-208 -8,-76 -6,-152 5,-226 l 194,-1391 30,0 c 199,1 397,1 595,1 l -184,1306 c -6,43 -6,76 0,101 7,25 19,43 34,56 16,12 36,20 60,23 24,4 49,5 76,5 l 782,0 c 27,0 45,4 54,12 9,8 11,31 7,69 l -55,382 c -9,52 -36,78 -81,78 l -962,0 z m -328,-2234 0,0 9,-62 c 7,-48 35,-71 85,-71 l 472,0 c 37,0 58,5 65,15 7,10 8,29 3,56 l -9,63 c -207,0 -415,-1 -623,-1 l -2,0 z m 3332,329 0,0 c -9,52 -36,78 -82,78 l -564,0 -251,1756 c -5,27 -11,45 -19,56 -8,10 -30,15 -66,15 l -469,0 c -52,0 -75,-24 -68,-71 l 252,-1756 -551,0 c -47,0 -67,-26 -58,-78 l 19,-126 c 622,0 1245,-1 1868,-3 l 7,0 -18,129 z m -1829,-325 0,0 8,-53 c 4,-38 12,-61 24,-69 11,-8 29,-12 54,-12 l 1736,0 c 27,0 45,4 54,12 9,8 12,31 7,69 l -9,63 -33,-1 c -613,-4 -1227,-7 -1841,-9 z m 2892,1767 0,0 51,405 c 5,25 15,41 32,48 17,6 38,10 63,10 l 489,0 c 25,0 40,-8 45,-24 4,-16 5,-29 3,-40 l -334,-1980 c -59,1 -117,2 -176,2 -246,3 -493,4 -739,6 l -891,1972 c -7,18 -8,33 -4,45 5,12 17,19 38,19 l 496,0 c 38,0 64,-7 76,-19 13,-12 26,-31 39,-56 l 163,-388 649,0 z m -481,-1753 0,0 c 31,-56 64,-93 99,-112 46,-26 106,-39 178,-39 l 269,0 c 38,0 72,2 102,5 29,3 55,12 76,25 22,14 40,35 54,63 10,18 18,40 24,66 -49,0 -98,-1 -147,-2 -218,-2 -437,-5 -655,-6 z m 43,1253 0,0 102,-253 183,-496 27,0 38,486 24,263 -374,0 z m 5906,500 0,0 -649,0 -163,388 c -13,25 -26,44 -39,56 -12,12 -38,19 -76,19 l -496,0 c -20,0 -33,-7 -37,-19 -5,-12 -4,-27 3,-46 l 254,-562 c 598,19 1196,23 1793,12 l 93,550 c 3,12 1,25 -3,41 -5,16 -19,24 -44,24 l -490,0 c -24,0 -45,-4 -62,-10 -17,-7 -28,-23 -33,-48 l -51,-405 z m -1128,-330 0,0 615,-1361 c 41,-90 85,-148 131,-174 47,-26 106,-39 179,-39 l 268,0 c 38,0 72,2 102,5 29,3 55,12 76,25 22,14 40,35 55,63 14,28 25,67 32,116 l 229,1354 c -563,-8 -1125,-4 -1687,11 z m 690,-170 0,0 374,0 -24,-263 -37,-486 -27,0 -184,496 -102,253 z M 335,492 l 0,0 -42,100 -105,0 209,-441 114,0 c 1,12 3,30 5,53 2,23 4,49 7,77 2,29 5,59 8,90 3,32 5,62 8,90 3,29 5,55 7,78 2,23 3,41 5,53 l -98,0 c -1,-5 -1,-12 -2,-21 0,-9 -1,-19 -1,-29 0,-10 -1,-20 -1,-29 -1,-9 -1,-16 -2,-21 l -112,0 z m 110,-75 0,0 c 0,-5 0,-11 0,-20 0,-8 0,-17 -1,-26 0,-9 -1,-18 -1,-27 0,-8 0,-14 -1,-19 0,-3 0,-8 0,-16 0,-8 0,-15 0,-24 0,-8 0,-16 0,-24 0,-8 0,-13 0,-17 l -4,0 c -2,4 -5,9 -8,17 -3,8 -6,16 -9,24 -3,9 -6,17 -9,24 -3,8 -5,14 -7,17 -2,4 -5,11 -8,19 -4,8 -7,17 -11,26 -4,9 -8,18 -11,26 -4,9 -6,15 -8,20 l 78,0 z m 1042,-266 0,0 c 16,0 32,1 47,5 14,4 27,10 37,18 10,8 19,18 25,31 6,12 9,27 9,46 0,10 -2,21 -5,32 -4,11 -9,21 -16,31 -7,9 -16,18 -26,25 -10,8 -22,14 -36,18 l 0,3 c 21,7 36,17 44,32 9,15 14,31 14,50 0,22 -5,42 -13,61 -8,18 -18,34 -32,47 -14,13 -30,24 -48,31 -18,7 -38,11 -58,11 l -178,0 86,-441 150,0 z m -100,246 0,0 -24,120 39,0 c 10,0 20,-1 30,-3 9,-2 18,-6 26,-12 7,-5 13,-13 18,-22 5,-10 7,-22 7,-36 0,-17 -5,-29 -16,-36 -11,-7 -25,-11 -41,-11 l -39,0 z m 33,-171 0,0 -19,98 38,0 c 8,0 16,-2 24,-4 8,-2 16,-5 22,-10 6,-5 11,-12 15,-19 4,-8 6,-17 6,-27 0,-8 -1,-14 -4,-19 -3,-4 -7,-8 -11,-11 -5,-3 -10,-5 -15,-6 -6,-1 -12,-2 -17,-2 l -39,0 z m 1017,366 0,0 -100,0 71,-363 -96,0 16,-79 294,0 -16,79 -99,0 -70,363 z m 947,9 0,0 c -26,0 -47,-4 -65,-11 -18,-8 -32,-18 -43,-32 -11,-13 -19,-30 -24,-49 -5,-18 -7,-39 -7,-62 0,-12 0,-25 1,-37 2,-13 3,-26 5,-40 6,-34 13,-64 24,-93 10,-28 24,-52 40,-72 16,-20 36,-36 60,-47 23,-11 51,-17 82,-17 26,0 47,4 65,11 18,7 32,17 43,31 11,13 19,29 24,48 5,19 8,40 8,64 0,42 -4,82 -12,119 -9,37 -21,69 -39,97 -17,28 -39,50 -66,66 -27,16 -59,24 -96,24 z m 64,-379 0,0 c -12,0 -23,4 -33,10 -9,7 -17,16 -24,28 -7,12 -14,26 -19,42 -5,17 -10,34 -13,54 -7,34 -11,65 -12,95 0,22 4,39 10,51 7,13 19,19 37,19 13,0 24,-4 34,-11 10,-7 18,-18 25,-31 7,-13 13,-29 18,-48 5,-18 10,-39 14,-61 3,-16 6,-31 7,-45 2,-14 3,-26 3,-38 0,-20 -4,-36 -11,-48 -7,-11 -19,-17 -36,-17 z m 1221,-72 0,0 -71,363 41,2 -39,184 -84,0 19,-107 -272,0 86,-442 98,0 -71,364 123,0 c 12,-61 24,-122 36,-182 12,-60 24,-121 36,-182 l 98,0 z m 750,0 0,0 256,0 -15,79 -159,0 -18,95 145,0 -16,77 -144,0 -22,112 170,0 -15,79 -269,0 87,-442 z m 1149,251 0,0 -124,0 -38,191 -98,0 86,-442 99,0 -34,174 124,0 34,-174 98,0 -86,442 -98,0 37,-191 z m 954,191 0,0 -99,0 70,-363 -96,0 17,-79 293,0 -15,79 -100,0 -70,363 z m 931,-173 0,0 -33,173 -99,0 86,-442 130,0 c 11,0 24,1 39,3 15,2 29,7 42,14 14,8 25,18 35,33 9,14 14,34 14,59 0,34 -7,61 -19,82 -12,21 -27,37 -45,49 -18,12 -37,19 -58,23 -21,4 -41,6 -59,6 l -33,0 z m 38,-193 0,0 -23,118 23,0 c 9,0 18,-2 26,-4 9,-2 17,-6 25,-12 7,-6 13,-14 18,-24 4,-9 6,-21 6,-35 0,-9 -1,-16 -4,-22 -3,-5 -7,-10 -11,-13 -5,-3 -10,-5 -16,-6 -6,-1 -12,-2 -17,-2 l -27,0 z"
               class="fil1"
               inkscape:connector-curvature="0"
               style="fill:#067cff" />
          </g>
        </g>
      </g>
    </g>
    <g
       id="g3366"
       transform="matrix(1.4892422,0,0,1.3968212,145.38268,972.08014)"
       style="fill:none;fill-rule:evenodd">
      <g
         id="g3368"
         transform="translate(2,1)"
         style="stroke:#067cff;stroke-width:1.5">
        <circle
           id="circle3370"
           r="5"
           cy="11.462"
           cx="42.601002"
           style="fill:#067cff;fill-opacity:1">
          <animate
             repeatCount="indefinite"
             calcMode="linear"
             values="1;0;0;0;0;0;0;0"
             dur="1.3s"
             begin="0s"
             attributeName="fill-opacity" />
        </circle>
        <circle
           id="circle3372"
           r="5"
           cy="27.063"
           cx="49.063"
           style="fill:#067cff;fill-opacity:0">
          <animate
             repeatCount="indefinite"
             calcMode="linear"
             values="0;1;0;0;0;0;0;0"
             dur="1.3s"
             begin="0s"
             attributeName="fill-opacity" />
        </circle>
        <circle
           id="circle3374"
           r="5"
           cy="42.662998"
           cx="42.601002"
           style="fill:#067cff;fill-opacity:0">
          <animate
             repeatCount="indefinite"
             calcMode="linear"
             values="0;0;1;0;0;0;0;0"
             dur="1.3s"
             begin="0s"
             attributeName="fill-opacity" />
        </circle>
        <circle
           id="circle3376"
           r="5"
           cy="49.125"
           cx="27"
           style="fill:#067cff;fill-opacity:0">
          <animate
             repeatCount="indefinite"
             calcMode="linear"
             values="0;0;0;1;0;0;0;0"
             dur="1.3s"
             begin="0s"
             attributeName="fill-opacity" />
        </circle>
        <circle
           id="circle3378"
           r="5"
           cy="42.662998"
           cx="11.399"
           style="fill:#067cff;fill-opacity:0">
          <animate
             repeatCount="indefinite"
             calcMode="linear"
             values="0;0;0;0;1;0;0;0"
             dur="1.3s"
             begin="0s"
             attributeName="fill-opacity" />
        </circle>
        <circle
           id="circle3380"
           r="5"
           cy="27.063"
           cx="4.9380002"
           style="fill:#067cff;fill-opacity:0">
          <animate
             repeatCount="indefinite"
             calcMode="linear"
             values="0;0;0;0;0;1;0;0"
             dur="1.3s"
             begin="0s"
             attributeName="fill-opacity" />
        </circle>
        <circle
           id="circle3382"
           r="5"
           cy="11.462"
           cx="11.399"
           style="fill:#067cff;fill-opacity:0">
          <animate
             repeatCount="indefinite"
             calcMode="linear"
             values="0;0;0;0;0;0;1;0"
             dur="1.3s"
             begin="0s"
             attributeName="fill-opacity" />
        </circle>
        <circle
           id="circle3384"
           r="5"
           cy="5"
           cx="27"
           style="fill:#067cff;fill-opacity:0">
          <animate
             repeatCount="indefinite"
             calcMode="linear"
             values="0;0;0;0;0;0;0;1"
             dur="1.3s"
             begin="0s"
             attributeName="fill-opacity" />
        </circle>
      </g>
    </g>
  </g>
</svg>
