<?xml version="1.0" encoding="UTF-8"?>
<!DOCTYPE svg PUBLIC "-//W3C//DTD SVG 1.1//EN" "http://www.w3.org/Graphics/SVG/1.1/DTD/svg11.dtd">
<!-- Creator: CorelDRAW 2017 -->
<svg xmlns="http://www.w3.org/2000/svg" xml:space="preserve" width="14.4639mm" height="14.4639mm" version="1.1" style="shape-rendering:geometricPrecision; text-rendering:geometricPrecision; image-rendering:optimizeQuality; fill-rule:evenodd; clip-rule:evenodd"
viewBox="0 0 494.08 494.08"
 xmlns:xlink="http://www.w3.org/1999/xlink">
 <defs>
  <style type="text/css">
   <![CDATA[
    .fil0 {fill:#FEFEFE}
   ]]>
  </style>
 </defs>
 <g id="Слой_x0020_1">
  <metadata id="CorelCorpID_0Corel-Layer"/>
  <g id="_1671478434928">
   <path class="fil0" d="M494.07 392.84l-0.16 0c0,-9.3 -3.77,-17.72 -9.87,-23.82 -1.79,-1.8 -3.83,-3.31 -5.99,-4.67l-95.07 -73.93c-6.1,-6.1 -14.52,-9.88 -23.82,-9.88 -7.62,0 -14.56,2.63 -20.19,6.91l-26.52 26.73 -0.07 -0.06c-4.11,4.59 -10.02,7.55 -16.67,7.55 -7.6,0 -14.28,-3.8 -18.36,-9.56 -0.14,0.21 -0.33,0.42 -0.47,0.65 -36.7,-26.62 -69.22,-58.67 -95.81,-95.41 0.27,-0.18 0.5,-0.37 0.76,-0.55 -5.85,-4.09 -9.7,-10.86 -9.7,-18.54 0,-6.88 3.14,-12.96 7.97,-17.11l-0.03 -0.04 26.39 -26.2c4.29,-5.6 6.9,-12.54 6.9,-20.16 0,-9.3 -3.77,-17.73 -9.87,-23.82l-73.94 -95.08c-1.36,-2.15 -2.87,-4.19 -4.66,-5.98 -6.1,-6.1 -14.52,-9.87 -23.82,-9.87 -44.92,0 -101.06,52.78 -101.06,117.9 0,18.05 4.17,35.07 11.41,50.36l-0.37 0.37c67.56,134.55 179.85,246.85 314.41,314.4l0.36 -0.36c15.29,7.23 32.32,11.41 50.35,11.41 65.11,0 117.9,-56.14 117.9,-101.07 0,-0.04 -0.01,-0.1 -0.01,-0.17zm-117.89 78.77l0 0c-14.08,0 -27.79,-3.12 -40.74,-9.24 -1.21,-0.57 -2.46,-1.02 -3.74,-1.36 -127.64,-65.13 -233.42,-170.88 -298.57,-298.51 -0.35,-1.3 -0.82,-2.61 -1.41,-3.85 -6.13,-12.97 -9.25,-26.69 -9.25,-40.76 0,-54.46 47.69,-95.44 78.6,-95.44 4.04,0 6.71,2.07 7.94,3.29 0.28,0.3 0.78,0.88 1.53,2.07 0.4,0.64 0.83,1.26 1.28,1.84l73.95 95.08c0.57,0.74 1.19,1.43 1.85,2.08 1.23,1.23 3.29,3.9 3.29,7.95 0,1.98 -0.55,3.85 -1.63,5.58l-25.03 24.83c-0.11,0.12 -0.22,0.23 -0.34,0.35 -9.07,8.53 -14.24,20.36 -14.24,32.75 0,11.6 4.5,22.65 12.33,30.94 0.28,0.44 0.57,0.88 0.88,1.3 27.6,38.14 61.52,71.93 100.81,100.43 0.3,0.22 0.61,0.43 0.92,0.64 8.3,7.96 19.43,12.55 31.1,12.55 11.73,0 23.03,-4.69 31.42,-12.94 0.43,-0.38 0.86,-0.77 1.26,-1.19l25.15 -25.34c1.76,-1.1 3.64,-1.66 5.62,-1.66 4.04,0 6.71,2.07 7.94,3.29 0.66,0.66 1.35,1.28 2.09,1.87l95.07 73.93c0.61,0.47 1.25,0.91 1.9,1.32 1.19,0.75 1.73,1.23 2,1.5 1.23,1.23 3.29,3.89 3.29,7.94 0,0.75 0.04,1.5 0.11,2.25 -1.75,30.93 -42.13,76.52 -95.39,76.52z"/>
  </g>
 </g>
</svg>
