<?xml version="1.0" encoding="UTF-8" standalone="no"?>
<!-- Generator: Adobe Illustrator 19.0.0, SVG Export Plug-In . SVG Version: 6.00 Build 0)  -->

<svg
   xmlns:dc="http://purl.org/dc/elements/1.1/"
   xmlns:cc="http://creativecommons.org/ns#"
   xmlns:rdf="http://www.w3.org/1999/02/22-rdf-syntax-ns#"
   xmlns:svg="http://www.w3.org/2000/svg"
   xmlns="http://www.w3.org/2000/svg"
   xmlns:sodipodi="http://sodipodi.sourceforge.net/DTD/sodipodi-0.dtd"
   xmlns:inkscape="http://www.inkscape.org/namespaces/inkscape"
   version="1.1"
   id="Capa_1"
   x="0px"
   y="0px"
   viewBox="0 0 474.64 474.64"
   style="enable-background:new 0 0 474.64 474.64;"
   xml:space="preserve"
   width="512px"
   height="512px"
   sodipodi:docname="up.svg"
   inkscape:version="0.92.2 5c3e80d, 2017-08-06"><metadata
     id="metadata47"><rdf:RDF><cc:Work
         rdf:about=""><dc:format>image/svg+xml</dc:format><dc:type
           rdf:resource="http://purl.org/dc/dcmitype/StillImage" /></cc:Work></rdf:RDF></metadata><defs
     id="defs45" /><sodipodi:namedview
     pagecolor="#ffffff"
     bordercolor="#666666"
     borderopacity="1"
     objecttolerance="10"
     gridtolerance="10"
     guidetolerance="10"
     inkscape:pageopacity="0"
     inkscape:pageshadow="2"
     inkscape:window-width="1920"
     inkscape:window-height="1015"
     id="namedview43"
     showgrid="false"
     inkscape:zoom="0.4609375"
     inkscape:cx="-150.77966"
     inkscape:cy="256"
     inkscape:window-x="0"
     inkscape:window-y="36"
     inkscape:window-maximized="1"
     inkscape:current-layer="Capa_1" /><g
     id="g10"><g
       id="g8"><g
         id="g6"><path
           d="M237.32,0.016C106.249,0.016,0,106.233,0,237.336s106.281,237.288,237.32,237.288     s237.32-106.249,237.32-237.32S368.391,0.016,237.32,0.016z M237.32,442.841c-113.336,0-205.537-92.169-205.537-205.569     S123.983,31.735,237.32,31.735s205.537,92.233,205.537,205.537S350.688,442.841,237.32,442.841z"
           fill="#006DF0"
           id="path2" /><path
           d="M247.554,161.534c-3.115-3.115-7.183-4.608-11.283-4.608s-8.168,1.494-11.283,4.608     L121.918,264.605c-6.198,6.198-6.198,16.273,0,22.47c6.198,6.198,16.273,6.198,22.47,0l91.883-91.883l91.883,91.883     c6.198,6.198,16.273,6.198,22.47,0c6.198-6.198,6.198-16.273,0-22.47L247.554,161.534z"
           fill="#006DF0"
           id="path4" /></g></g></g><g
     id="g12" /><g
     id="g14" /><g
     id="g16" /><g
     id="g18" /><g
     id="g20" /><g
     id="g22" /><g
     id="g24" /><g
     id="g26" /><g
     id="g28" /><g
     id="g30" /><g
     id="g32" /><g
     id="g34" /><g
     id="g36" /><g
     id="g38" /><g
     id="g40" /><path
     style="fill:#ffffff;fill-opacity:1;stroke:#067cff;stroke-width:2.16949153;stroke-opacity:1"
     d="m 233.17192,475.42441 c -25.0859,-2.4543 -48.07165,-9.18395 -73.28039,-21.45466 C 44.498306,397.80055 1.0339276,256.63737 65.087805,146.06718 114.97872,59.945175 215.03825,17.71441 310.67119,42.417142 c 37.27201,9.627651 67.44044,26.278289 95.5008,52.709041 21.34781,20.108037 35.18984,38.863797 47.79776,64.765347 12.68332,26.05644 18.78784,47.47383 21.36784,74.96823 13.02046,138.75538 -103.15698,254.16476 -242.16567,240.56465 z m -30.53664,-211.8797 51.62913,-51.46545 51.62912,51.46545 c 48.18983,48.03706 52.14818,51.46546 59.42068,51.46546 11.51805,0 17.93634,-6.13988 17.93634,-17.15829 0,-8.80102 -0.91553,-9.86279 -57.44224,-66.61934 -31.59322,-31.72169 -60.56053,-59.03229 -64.37178,-60.69024 -3.81128,-1.65794 -8.69263,-2.4078 -10.84746,-1.66634 -2.15485,0.74146 -31.00941,28.30488 -64.12127,61.25205 -54.57656,54.30511 -60.20339,60.57353 -60.20339,67.06794 0,9.56536 8.19412,17.81422 17.69598,17.81422 6.29908,0 12.51717,-5.45408 58.67489,-51.46546 z"
     id="path49"
     inkscape:connector-curvature="0"
     transform="scale(0.92703125)" /><path
     style="fill:#ffffff;fill-opacity:0;stroke:#067cff;stroke-width:2.16949153;stroke-opacity:1"
     d="M 236.76759,473.11039 C 148.00271,466.73115 68.869048,399.8677 44.518939,310.67119 40.164563,294.72074 39.489206,287.25005 39.517771,255.34915 39.553,216.00834 41.266026,205.92872 52.975471,176.16271 66.157351,142.6537 91.281783,108.56375 119.34352,86.111586 208.80411,14.53427 335.7655,23.270306 414.18511,106.39922 c 17.32352,18.36384 24.7255,28.95957 36.38773,52.08809 11.88997,23.58014 16.8696,38.5265 20.70635,62.14998 16.7046,102.85316 -42.53592,204.46262 -139.83914,239.85234 -31.22698,11.35744 -59.60714,15.1408 -94.67246,12.62076 z m -67.86231,-174.1529 c 11.15091,-10.0222 34.90776,-32.96609 52.79301,-50.98644 l 32.51863,-32.76427 41.24409,40.85258 c 51.12711,50.64179 63.05597,61.1203 69.58002,61.1203 13.46315,0 22.25571,-10.82997 19.38903,-23.88189 -1.65038,-7.51412 -51.57029,-60.13984 -96.99864,-102.25623 -20.95603,-19.42821 -26.58751,-23.55679 -32.13201,-23.55679 -5.77519,0 -12.86276,5.88402 -50.28399,41.74517 -23.95867,22.95984 -51.72299,50.78197 -61.69849,61.82694 -15.27075,16.90795 -18.13727,21.25195 -18.13727,27.48572 0,5.60427 1.62245,8.76913 6.67493,13.02051 10.57589,8.89901 14.67641,7.5039 37.05069,-12.6056 z"
     id="path80"
     inkscape:connector-curvature="0"
     transform="scale(0.92703125)" /></svg>
