<?xml version="1.0" encoding="UTF-8"?>
<!DOCTYPE svg PUBLIC "-//W3C//DTD SVG 1.1//EN" "http://www.w3.org/Graphics/SVG/1.1/DTD/svg11.dtd">
<!-- Creator: CorelDRAW 2017 -->
<svg xmlns="http://www.w3.org/2000/svg" xml:space="preserve" width="500.24mm" height="103.713mm" version="1.1" style="shape-rendering:geometricPrecision; text-rendering:geometricPrecision; image-rendering:optimizeQuality; fill-rule:evenodd; clip-rule:evenodd"
viewBox="0 0 24098.16 4996.2"
 xmlns:xlink="http://www.w3.org/1999/xlink">
 <defs>
  <style type="text/css">
   <![CDATA[
    .fil0 {fill:#1BA4FF}
   ]]>
  </style>
 </defs>
 <g id="Слой_x0020_1">
  <metadata id="CorelCorpID_0Corel-Layer"/>
  <g id="_2722950126768">
   <g>
    <path class="fil0" d="M24098.16 3530c-1432.86,61.25 -2852.71,58.96 -4261.34,1.69 1439.22,-54.5 2859.52,-54.69 4261.34,-1.69zm-6541.46 1463.3l0 0c1036.18,50.51 1937.14,-564.93 2249.82,-1455.88 -496.15,895.93 -1272.02,1373.01 -2249.82,1455.88zm-2225.92 -3535.42l0 0c-1414.23,60.07 -13929.78,34.28 -15330.77,-28.53 1407.5,-52.25 13923.21,-28.98 15330.77,28.53zm2259.65 -1455l0 0c-1017.72,-49.54 -1895.12,542.24 -2259.65,1455 481.78,-821.49 1197.26,-1353.31 2259.65,-1455zm1770.57 2468.09l0 0c250.03,1752.58 -2357.75,3035.94 -3484.46,924.97 1080.18,1541.59 3235.55,932.82 3484.46,-924.97zm-3605.74 637.84l0 0c-698.03,-2062.01 1762.66,-3303.91 2997.8,-1977.55 -1472.89,-1245.84 -3510.84,50 -2997.8,1977.55zm1627.95 -612.28l0 0c-292.58,206.43 -566.3,454.14 -814.88,757.13 314.92,-216.02 583.59,-470.9 814.88,-757.13zm245.66 -72.26l0 0c347.07,3.3 753.19,-102.35 1157.52,-230.97 49.95,468.99 -134.98,825.93 -397.48,1132.45 30.75,36.76 61.57,73.53 92.32,110.31 435.48,-439.25 518.87,-924.53 417.74,-1434 -425.27,126.14 -848.17,270.84 -1270.11,422.22zm1082.03 -604.88l0 0c-472.35,172.55 -843.9,366.75 -1091.97,587.6 453.99,-211.21 818.3,-407.13 1091.97,-587.6zm-1197.53 368.73l0 0c30.31,-367.59 60.5,-735.17 90.75,-1102.77 565.9,43.83 870.88,307.72 1067.15,663.3 -302.4,-281.99 -606.99,-438.91 -913.77,-470.75 -81.38,303.4 -162.7,606.81 -244.14,910.22zm-296.45 150.74l0 0c-380.02,-128.65 -733.89,-272.97 -1058.97,-434.52 277.59,-589.81 693.37,-823 1204.11,-811.45 -4.94,62 -9.88,124 -14.88,185.97 -311.04,16.8 -756.34,151.55 -992.52,557.17 313.74,164.73 623.55,327.09 862.25,502.84zm919.88 1270.77l0 0c-229.39,-286.33 -447.37,-582.91 -661.37,-880.2 -183.47,355.96 -308.01,584.27 -501.81,929.29 309.14,179.24 694.54,211.02 1153.19,100.6 -435.2,230.21 -902.71,212.65 -1355.58,-24.87 -3.26,-1.45 -6.23,-3.02 -9.32,-4.93 -562.04,-313.79 -801.41,-818.92 -647.29,-1558.47 -35.03,730.05 208.72,1143.03 613.56,1372.71 248.52,-350.03 497.04,-700.09 745.61,-1050.09 248.13,366.54 458.93,740.57 663,1115.95z"/>
   </g>
  </g>
 </g>
</svg>
